HIERARCHY
ROOT Hips
{
  OFFSET 179.979 97.3047 303.174
  CHANNELS 6 Xposition Yposition Zposition Zrotation Xrotation Yrotation
  JOINT Spine
  {
    OFFSET 0.000859786 9.92346 -1.22733
    CHANNELS 3 Zrotation Xrotation Yrotation
    JOINT Spine1
    {
      OFFSET 0 11.732 0
      CHANNELS 3 Zrotation Xrotation Yrotation
      JOINT Spine2
      {
        OFFSET 0 13.4588 0
        CHANNELS 3 Zrotation Xrotation Yrotation
        JOINT Neck
        {
          OFFSET 2.54812e-05 15.0278 0.877907
          CHANNELS 3 Zrotation Xrotation Yrotation
          JOINT Head
          {
            OFFSET 0 10.3218 3.14243
            CHANNELS 3 Zrotation Xrotation Yrotation
            End Site
            {
              OFFSET 0 0 0
            }
          }
        }
        JOINT LeftShoulder
        {
          OFFSET 6.10582 9.10629 0.757062
          CHANNELS 3 Zrotation Xrotation Yrotation
          JOINT LeftArm
          {
            OFFSET 0 12.9223 0
            CHANNELS 3 Zrotation Xrotation Yrotation
            JOINT LeftForeArm
            {
              OFFSET 0 27.4047 0
              CHANNELS 3 Zrotation Xrotation Yrotation
              JOINT LeftHand
              {
                OFFSET -1.28204e-05 27.6145 0
                CHANNELS 3 Zrotation Xrotation Yrotation
                End Site
                {
                  OFFSET 0 0 0
                }
              }
            }
          }
        }
        JOINT RightShoulder
        {
          OFFSET -6.1057 9.10638 0.757076
          CHANNELS 3 Zrotation Xrotation Yrotation
          JOINT RightArm
          {
            OFFSET 0 12.9223 0
            CHANNELS 3 Zrotation Xrotation Yrotation
            JOINT RightForeArm
            {
              OFFSET 0 27.4047 0
              CHANNELS 3 Zrotation Xrotation Yrotation
              JOINT RightHand
              {
                OFFSET 1.28428e-05 27.6145 1.44975e-05
                CHANNELS 3 Zrotation Xrotation Yrotation
                End Site
                {
                  OFFSET 0 0 0
                }
              }
            }
          }
        }
      }
    }
  }
  JOINT LeftUpLeg
  {
    OFFSET 9.12387 -6.65719 -0.0554031
    CHANNELS 3 Zrotation Xrotation Yrotation
    JOINT LeftLeg
    {
      OFFSET 0 40.5994 0
      CHANNELS 3 Zrotation Xrotation Yrotation
      JOINT LeftFoot
      {
        OFFSET 0 42.099 0
        CHANNELS 3 Zrotation Xrotation Yrotation
        JOINT LeftToeBase
        {
          OFFSET 0 15.7216 0
          CHANNELS 3 Zrotation Xrotation Yrotation
          End Site
          {
            OFFSET 0 0 0
          }
        }
      }
    }
  }
  JOINT RightUpLeg
  {
    OFFSET -9.12503 -6.6556 -0.0553527
    CHANNELS 3 Zrotation Xrotation Yrotation
    JOINT RightLeg
    {
      OFFSET 0 40.5994 0
      CHANNELS 3 Zrotation Xrotation Yrotation
      JOINT RightFoot
      {
        OFFSET 0 42.099 0
        CHANNELS 3 Zrotation Xrotation Yrotation
        JOINT RightToeBase
        {
          OFFSET 0 15.7216 0
          CHANNELS 3 Zrotation Xrotation Yrotation
          End Site
          {
            OFFSET 0 0 0
          }
        }
      }
    }
  }
}
MOTION
Frames:	13
Frame Time:	0.0333333
-124.184 94.0356 -218.049 -4.87739 0.65367 40.8634 0.872529 -4.5182 -1.32361 1.80315 4.88859 -2.89987 2.14529 11.4745 -2.94748 12.6765 10.2466 0.535269 -6.88661 -25.7632 5.34505 -96.1863 -14.3887 90.3377 36.5663 58.1137 26.4783 37.7362 -22.0236 -0.978567 -8.89555 -3.30385 13.9436 102.09 -13.5874 -90.5544 1.53078 61.0428 -22.361 -22.506 -7.90888 0.544804 8.41886 -1.38857 -13.4559 -170.742 6.02976 -13.2474 3.70781 -54.2077 4.72173 -4.917 62.3132 1.95317 -0.965289 26.367 -3.60228 -174.67 30.4362 3.32777 -1.89621 -33.5723 4.91357 -21.653 74.8565 19.0729 0.963504 26.3682 3.55538 
-122.293 94.5885 -215.698 -5.03754 0.613128 41.1673 0.985191 -4.52701 -1.09537 2.01872 4.87156 -2.47472 2.31089 11.4598 -2.51501 12.4702 9.98546 0.0635605 -6.97434 -25.0384 4.7785 -96.1658 -14.5548 90.3127 35.2581 58.7195 28.4601 35.9843 -21.2519 -0.956454 -9.79091 -1.7115 15.0131 102.12 -13.7812 -90.515 0.406771 60.651 -22.3902 -24.3414 -7.95422 0.564542 7.91927 -1.30323 -14.5377 -169.767 12.3849 -11.4321 3.10379 -63.6688 2.44969 -1.69358 57.5278 -0.904431 -0.965289 26.367 -3.60228 -174.812 27.9773 5.17337 -2.41829 -32.9144 3.89741 -22.1834 76.7659 19.7427 0.963504 26.3682 3.55538 
-120.374 95.135 -213.431 -5.11289 0.567654 41.5263 1.07192 -4.52721 -0.867494 2.18265 4.87315 -2.04304 2.42408 11.4634 -2.07611 12.0409 9.79096 -0.322719 -6.98646 -24.4522 4.22094 -96.3896 -14.722 90.2879 33.6394 59.0342 30.8393 34.3964 -20.5759 -0.936238 -10.6252 -0.694755 15.4537 102.199 -13.8591 -90.4998 -1.29923 60.0562 -21.9558 -26.3376 -8.0908 0.588132 7.15521 -1.59013 -14.8524 -169.015 18.177 -11.4327 3.96178 -70.6814 2.04143 0.187224 60.4162 -2.86663 -0.965289 26.367 -3.60228 -174.997 25.3108 5.69671 -2.15592 -31.919 3.99104 -24.0794 78.1903 22.014 0.963504 26.3682 3.55538 
-118.412 95.7127 -211.216 -4.90869 0.820098 41.6988 1.03917 -4.53902 -0.626667 2.10644 4.85482 -1.55129 2.29007 11.4469 -1.57609 11.2369 9.66865 -0.580609 -6.71647 -24.0558 3.65484 -96.435 -15.0621 90.2358 31.7076 59.4024 33.3614 33.0463 -19.9389 -0.914927 -11.0764 0.027421 15.0661 102.138 -13.693 -90.5333 -3.20522 59.9018 -20.7662 -28.2268 -8.56531 0.621271 6.67355 -2.03002 -14.5059 -168.682 23.5601 -12.8226 5.63198 -74.0962 2.73677 2.76312 61.6786 -4.3078 -0.965289 26.367 -3.60228 -175.443 22.5954 5.23125 -1.63102 -30.6471 4.6255 -26.7281 79.1452 25.2077 0.963504 26.3682 3.55538 
-116.297 96.1986 -209.02 -4.64108 1.06234 41.8154 0.988191 -4.56658 -0.387817 1.99361 4.80499 -1.0579 2.11924 11.3983 -1.07442 10.2638 9.80438 -0.684081 -6.39779 -23.6811 3.20976 -96.5599 -15.3114 90.197 29.0261 59.6514 35.9099 31.9077 -19.0937 -0.881842 -11.07 0.363346 13.5554 101.881 -13.317 -90.6068 -5.11035 59.9376 -19.099 -29.8902 -8.94394 0.648253 6.03744 -2.97488 -13.941 -168.403 28.0938 -14.4413 6.50465 -74.3287 2.82385 3.13707 62.6756 -5.64464 -0.965289 26.367 -3.60228 -175.939 19.7265 5.61776 -1.73695 -29.2344 4.50669 -28.027 80.2209 27.2022 0.963504 26.3682 3.55538 
-114.058 96.4782 -206.829 -4.48593 1.17343 41.924 0.956096 -4.60086 -0.159268 1.91921 4.74081 -0.590452 1.98989 11.3349 -0.599205 9.48109 9.99536 -0.748681 -6.31503 -23.5347 2.87028 -96.7365 -15.4716 90.1713 25.7987 59.7955 38.6706 31.02 -18.6689 -0.866832 -10.9964 0.726135 12.5329 101.535 -12.8937 -90.686 -7.21341 59.9336 -17.1999 -31.4033 -9.13261 0.666886 5.40973 -3.78212 -13.1575 -168.173 31.7053 -16.021 5.54487 -71.7398 1.62968 3.93971 64.3896 -6.35257 -0.965289 26.367 -3.60228 -176.422 16.815 6.38748 -1.76587 -27.9116 4.20355 -29.6079 81.5272 29.4224 0.963504 26.3682 3.55538 
-111.738 96.5124 -204.577 -4.77519 1.12087 41.9682 1.00921 -4.68491 0.0747314 2.01512 4.57621 -0.135466 2.03232 11.1707 -0.136645 8.88859 9.90795 -0.728446 -6.31974 -23.3948 2.6689 -96.9497 -15.7459 90.1266 22.0141 59.7951 41.2084 30.8267 -18.4116 -0.855863 -11.165 1.08169 12.6216 101.138 -12.6123 -90.7335 -9.59604 59.7972 -15.291 -32.8478 -9.24863 0.681823 4.8205 -4.39088 -12.2737 -167.559 34.5298 -17.0969 3.29519 -66.7127 -0.286913 3.58242 66.0716 -6.30573 -0.965289 26.367 -3.60228 -176.319 14.0913 7.04791 -1.94563 -26.6862 3.85228 -32.371 82.9027 32.8551 0.963504 26.3682 3.55538 
-109.289 96.3863 -202.268 -4.9561 0.981004 41.875 1.04688 -4.74597 0.316886 2.08052 4.4582 0.339868 2.04189 11.0526 0.346285 8.27734 9.66789 -0.693091 -6.36019 -23.1191 2.47441 -97.0817 -16.0747 90.0729 18.5389 59.7496 43.8978 30.6087 -18.4659 -0.859732 -11.3471 1.3173 12.0867 100.732 -12.3953 -90.7663 -12.1263 59.5859 -13.1974 -34.2622 -9.33699 0.694939 4.40891 -4.64838 -12.1507 -167.468 36.0011 -17.4551 1.48016 -59.218 -2.08615 3.38127 67.4244 -6.77673 -0.965289 26.367 -3.60228 -176.281 11.2267 7.59194 -2.0413 -25.6375 3.5351 -37.2109 84.31 38.3442 0.963504 26.3682 3.55538 
-106.725 96.0653 -199.938 -5.06902 0.898504 41.6764 1.06898 -4.81169 0.568726 2.1148 4.33134 0.839065 2.01762 10.9251 0.853176 7.40971 9.49525 -0.538572 -6.02238 -23.0102 2.30099 -97.1132 -16.3845 90.0228 15.1905 59.79 46.1323 30.5285 -18.6038 -0.866448 -11.2381 1.57579 12.0193 100.43 -12.2485 -90.787 -14.4401 59.1979 -10.9771 -35.7634 -9.32283 0.704569 4.1114 -4.67286 -12.4563 -167.906 36.2651 -17.3113 0.205663 -49.354 -3.51833 4.03147 67.7946 -7.49793 -0.965289 26.367 -3.60228 -176.372 8.44178 8.15272 -2.22097 -24.8867 3.12441 -47.5469 85.8508 49.3881 0.963504 26.3682 3.55538 
-104.066 95.648 -197.579 -5.20193 1.03087 41.4527 1.08099 -4.91416 0.802341 2.13038 4.1307 1.30526 1.9786 10.7235 1.3261 6.66305 8.99489 -0.366397 -5.69276 -22.8292 2.17747 -97.3516 -16.7942 89.9527 12.1105 59.6838 47.6527 30.6041 -18.6096 -0.868192 -11.1139 1.54617 12.7657 100.236 -12.1447 -90.8015 -16.5397 58.6699 -9.05247 -37.0144 -9.48085 0.717964 3.76607 -4.6923 -12.697 -169.044 35.678 -17.3205 0.317103 -37.8242 -3.90022 5.18857 68.2713 -8.41161 -0.965289 26.367 -3.60228 -176.642 5.94443 7.82286 -2.07461 -24.4472 3.30201 -69.2864 86.7852 71.9359 0.963504 26.3682 3.55538 
-101.286 95.1878 -195.197 -5.42187 1.13028 41.2986 1.12137 -5.05255 0.980059 2.20572 3.85747 1.65224 2.01343 10.4492 1.67743 6.20743 8.55473 -0.285789 -5.78588 -22.5734 2.08558 -97.4547 -17.1908 89.8857 9.1169 59.6815 49.2137 30.7034 -18.6891 -0.869048 -11.2427 1.84674 13.04 100.028 -11.7499 -90.8691 -17.7897 58.2048 -7.68384 -37.9666 -9.63801 0.728992 3.62617 -4.92876 -12.4785 -170.26 34.6763 -17.25 0.675945 -26.559 -3.46132 4.68835 69.1569 -8.00316 -0.965289 26.367 -3.60228 -176.84 3.61548 7.65284 -2.15682 -24.2498 3.3932 -89.6993 87.1069 93.4562 0.963504 26.3682 3.55538 
-98.3588 94.6782 -192.796 -5.48755 1.08964 41.182 1.15594 -5.16645 1.10566 2.27164 3.63242 1.89626 2.05092 10.2232 1.92413 5.6416 8.45904 -0.0753625 -5.54652 -22.5607 2.09068 -97.7116 -17.4175 89.8423 6.44707 59.4567 50.4578 30.6529 -18.6769 -0.868364 -11.3754 2.35396 13.4133 99.8597 -11.1732 -90.9695 -18.3067 57.872 -6.89517 -38.6797 -9.90032 0.742399 3.30917 -5.26083 -12.2763 -171.943 33.3025 -15.8184 1.33094 -17.166 -3.56771 4.78332 69.2698 -8.28165 -0.965289 26.367 -3.60228 -177.189 1.24905 7.5555 -2.26299 -24.4486 3.46189 -102.908 87.199 107.977 0.963504 26.3682 3.55538 
-95.4657 94.4293 -190.469 -4.80092 1.374 41.1707 0.998116 -5.20843 1.14623 1.95545 3.54766 2.02141 1.72018 10.138 2.05057 5.39348 8.50661 0.0953038 -5.47103 -22.5149 2.18186 -97.7946 -17.4984 89.8267 4.43129 59.411 51.4628 30.3408 -18.5836 -0.86639 -11.3044 2.36958 13.563 99.8048 -10.712 -91.0515 -18.6765 57.7962 -6.03533 -39.1542 -10.026 0.749411 3.22728 -5.4617 -11.7653 -174.085 32.8424 -13.6283 2.20836 -14.3495 -3.26516 5.38359 68.2586 -7.61813 -0.965289 26.367 -3.60228 -178.42 -1.09088 7.67511 -2.54522 -24.8993 3.282 -95.5144 87.614 101.948 0.963504 26.3682 3.55538 
